<svg xmlns="http://www.w3.org/2000/svg" width="68" height="53" viewBox="-445 254 68 53"><path fill="#FFF" d="M-379.9 268.8c-1.8-1.9-4.3-3.7-7.4-5.2-6.4-2.9-14.8-4.6-23.7-4.6s-17.3 1.6-23.7 4.6c-3.2 1.5-5.7 3.2-7.4 5.2-1.9 2.1-2.9 4.4-2.9 6.8s1 4.7 2.9 6.8c1.8 2 4.3 3.7 7.4 5.2 6.3 3 14.8 4.6 23.7 4.6s17.3-1.6 23.7-4.6c3.2-1.5 5.7-3.2 7.4-5.2 1.9-2.1 2.9-4.4 2.9-6.8s-1-4.7-2.9-6.8z"/><path d="M-380.5 269.3c-1.7-1.9-4.1-3.5-7.2-5-6.2-2.8-14.5-4.5-23.3-4.5s-17.1 1.6-23.3 4.5c-3.1 1.4-5.5 3.1-7.2 5-1.8 2-2.7 4.1-2.7 6.3s.9 4.3 2.7 6.3c1.7 1.9 4.1 3.5 7.2 5 6.2 2.9 14.5 4.5 23.3 4.5s17.1-1.6 23.3-4.5c3.1-1.4 5.5-3.1 7.2-5 1.8-2 2.7-4.1 2.7-6.3s-.9-4.3-2.7-6.3z"/><path fill="#FFF" d="M-416.1 254.1l-.5.6c-.4.4-1.4 1.7-2 2.1-.2.2-.9.8-1.4 1.1l-2.4-1.1-5.1 2.5-1.9-4.2s-5.3 4.4-8.6 4.3c-.4-.1-1.7-.4-1.7-.4l.6 8 2.9-.4c0 .8.2 2.1.2 2.9 0 .2 0 3.1-.7 5.5l-.1.4.2.3s1 1.5 1.2 4.6c-.8.4-2.7 1.3-5.9 1.8l-1 .1.3.9c.1.2 1.8 6 4.3 10l.4.7.7-.5c.5-.3 4.3-3 5.8-4.3.8.3 2.3.9 3.6 1.2.2.9.8 3.4.6 6.6v.7l.6.2c.1 0 1.3.4 3.7.5l1 .1h.3l.2-.2c.2-.1 3.6-2.5 4.5-3.2h.1c.4 0 1.5.1 4.1 1l.8.3.2-.8 2.2-8.8c.8.6 1.9 1.4 3 2.1l.4.2.4-.2c.1 0 1.8-.8 3.8-2.5 0 1.6-.2 4.1-.7 7.4l-.1.9 5 .2.2-.1c1.2-.6 2.7-1.4 3.1-1.4 0 0 1.7-.2 4.2.7.1 0 1 .3 2.1.3.2 0 6.4-.2 6.4-.2l-2.6-8.1-1.4-4.9s-4-3.7-4.5-5.9c-.2-2.6 3.2-4.4 3.2-4.4l-.6-2.2c.3-.1.7-.2 1.1-.3h4.5v-.9l-.1-5.6v-.2c0-.2-1.2-4.1-2-5.7l-.5-.7-.7.4s-2.1 1.2-5.3 2.1l-.6.2v.7c0 .5 0 1.1-.1 1.4-.2.7-8-1.9-8-1.9l-6.3.3-5.3-3.6-.4.3-1.9 1.4-2.8-2-.7-.3z"/><path d="M-386 281.4s-4-3.5-4.6-6.2c0 0-.3-2.8 3.1-4.9l-.5-2.2s.8-.5 1.9-.6 3.7 0 3.7 0l-.1-5.6s-1.1-4-1.9-5.6c0 0-2.1 1.2-5.5 2.2 0 0 .1 1.6-.3 2.1 0 0-.3.5-2.4 0-2-.5-5.4-1.4-6.3-1.7 0 0-5.1.3-5.4.3l.2 1.4-2.3-.1.6-1.7s-4.3-2.8-4.4-2.9l-2.4 1.7-3.3-2.3s-1.4 1.7-2.1 2.2c0 0-1.2 1-2 1.4l-2.3-1.1s-.3.1-.9.4c0 0-2.4 1-4.8 2.4l-1.7-4s-5.7 4.8-9 3.7l.5 5.7 2.5-.4s.4 2.5.5 3.9c0 0 0 3.1-.7 5.8 0 0 1.3 1.7 1.3 5.5 0 0-2.2 1.5-6.6 2.1 0 0 1.8 5.8 4.2 9.8 0 0 5.3-3.5 6.4-4.5 0 0 2.8 1.1 4.4 1.4 0 0 .7 2.9.5 7.3 0 0 1.2.4 3.5.5l.9.1s3.9-2.8 4.6-3.3c0 0 .5-.5 4.8.9l2.6-10s2 1.7 3.9 2.8c0 0 2.5-1.1 4.9-3.6 0 0 .3 3.5-.7 9.3 0 0 3.1.2 3.8.2 0 0 2.7-1.5 3.4-1.5 0 0 1.6-.1 4.5.8 0 0 1 .3 2.4.2l4.7-.2s-2.1-6.3-2.3-7.1c0 .1-1-3.5-1.3-4.6"/><g fill="#FFF"><path d="M-434.8 306.2c-.6.5-1.4.8-2.4.8-.9 0-1.8-.3-2.3-.8-.5-.4-.8-1-.8-1.7s.3-1.2.8-1.7c.6-.5 1.4-.8 2.3-.8 1.2 0 2.1.4 2.7 1.1l-1.2.4c-.4-.4-.9-.6-1.5-.6-1.2 0-2 .7-2 1.5 0 .5.2.9.7 1.2.3.3.8.4 1.3.4.9 0 1.7-.4 2-1h-2.2v-.9h3.5v.3c0 .7-.3 1.3-.9 1.8zM-422.2 306.8l-.5-1h-3l-.5 1h-1.1l2.5-4.6h1.4l2.5 4.6h-1.3zm-2-3.8l-1 1.9h2l-1-1.9zM-408.4 306.8v-3.3l-2.2 2.7-2.2-2.7v3.3h-1.2v-4.6h1.3l2 2.5 2-2.5h1.3v4.6h-1zM-399.4 306.8v-4.6h5v.8h-3.9v1h2.7v.9h-2.7v1h4.1v.9h-5.2zM-384.5 302.9c-1 0-1.5.2-1.5.5 0 .2.1.3.4.3.4.1 1 .1 1.8.1 1.5.1 2.1.5 2.1 1.4 0 1-.9 1.6-2.7 1.6-1.2 0-2.1-.3-3-.9l.6-.8c.8.5 1.6.7 2.4.7.9 0 1.5-.3 1.5-.6 0-.4-.6-.4-1.6-.5-1.8-.1-2.7-.4-2.7-1.4 0-.9.9-1.5 2.6-1.5 1.1 0 2 .2 2.7.7l-.6.7c-.6-.1-1.3-.3-2-.3z"/></g><path fill="#FFF" d="M-414.5 267c2-.2 3.5-1.1 3.5-1.1-1.7 2.9-3.5 1.1-3.5 1.1M-407 263.4s-1 .8-1.6 1.1h-.1c-.1-.1-.6-.8-.8-1.3 0-.1 0-.1-.1-.2 0 0-.2-.4-.5-1.5 0 0 0 1.1.2 1.9 0 0 .2.8.6 1.2v.1l-1.2.6h-.1c-.2-.2-1.3-1.3-1.9-3.3 0 0 .1 1.3.4 2 .2.7.7 1.3 1 1.5 0 0 .1.1 0 .1-.1.1-.4.2-1.7.5h-.1c-.1-.1-.8-1.2-1.1-1.6 0 0-.3-.5-1-2.5 0 0 .3 3.4 1.5 4.4 0 0-1 .5-1.7.3 0 0-.5 0-1.2-1.6 0 0-.8-1.7-2.8-4.2.2-.1.9-.3 1.1-.6 0 0 1.3-1.8 2-2.6l2.6 2h.1l1.4-1.2h.1l1.4.8h.1l1-1.2h.1l1.8 1.5v.1c-.1.2-.6 1.2.3 2.7-.1-.1.3.9.2 1"/><path fill="#E2231A" d="M-395.2 267.9s-.1 2.2-.1 2.5c0 .3 0 1.1-.2 1.7 0 0-1.7 4.6-2.5 5.1l-.4-3-1.1 2.1s.2-1.6.6-2.2c0 0 1.5-2.9 1.5-3.2 0 0 .3-.6.1-.8 0 0-3-2.9-6.3-3.4l7.2-.3s3 2.1 3.2 2.3c-.1 0-1.1-.1-2-.8m-10.1 10.2c-2.3-.2-2.9-2.5-2.9-2.5-.1.8.4 1.5.4 1.5-.9-.6-.8-1.4-.8-1.4-.1 1.1.7 2.2.7 2.2-1.2-.9-1.1-2.3-1.1-2.3 0-1.8.1-2.5 1.3-4s1.9-1.5 2.8-1.7c.8-.2 1.9.1 1.9.1 2.3.3 2.8 1.7 2.8 1.7-.8-.5-1.8-.8-1.8-.8 3.2 3.4-.5 7.5-3.3 7.2m-19.1-6.5s.4-1 .3-1.4v-.1s-2.6 2.6-6 .4c0 0 .6.3 1.2.3v-3.6s-.5.2-1.6 1.2c0 0 1-2.3 4.9-3.6 0 0 2 1.4 3.1 1.8 0 0-.2 3.8-1.9 5m40.1-10.7c-.3-1.2-1.1-2.4-1.1-2.4l-3.2 1.6c-1.1 3.4-3.1 2.6-4.5 2.6-1.4-.1-6.1-1.9-6.1-1.9h-.1l-3.4.4s.6 2.4.4 3.3c-.2.9-.8 1.2-2.9 1.5-2.1.4-2 .4-3.2 1.1-1.2.8-3.3 3.2-3.3 3.2-.1 0-1.7.3-1.7.3-1.7.3-2.5-.1-2.5-.1-.8-.2-2.1-1.5-2.1-1.5-.1 0-.1-.1-.1-.1.3-.7.7-1.7.7-1.7.1-.4.1-.5-.8-2-.8-1.2-.8-1.3-1.5-2.1-.8-1.1-3.6-2.7-3.6-2.7h-.1l-1.3 1.2c-1.5.2-4.3 1.6-4.3 1.6-.6-2.7-1.7-4.6-1.7-4.6-4.5 3.5-6.7 3-6.7 3l.3 3.3c3.1-.3 5.2-1.9 5.2-1.9-.7 1.1-2.6 2.1-2.6 2.1.8 1.7 1.2 2.7 1.3 4 .1 1.3-.9 5.7-.9 5.7.2.4 1 4.5 1 4.5.4 2.4-.2 4.2-.2 4.2v-1.6l-.7-.1c-.3.5-1 1.1-1 1.1-.6.4-3 1-3 1 0 .1.6 2.2.8 2.8.2.6 1.4 3.1 1.4 3.1 1.2-.7 4.5-3.3 4.5-3.3.6-.5 1.1-.7 1.3-.8.2-.1.7-.1 1.2-.2s2.5-1.4 2.5-1.4c-.2-.1-1.4-3-1.6-3.6-.2-.7-.7-3.5-.7-3.5-.1-.1-2.1.2-2.1.2 1.9-1.8 4.7-1.4 4.7-1.4 2.2-.1 2.8 4.2 2.8 4.2-.1.1-1.9 4-1.9 4-.9 1.6-.4 3.2-.4 3.2.1.2.8 3.5.8 3.5.2.4.4 4.7.4 4.7h2.5c4.5-2.8 4.1-2.6 4.7-2.8.6-.2 3.1.6 3.1.6l2.2-5.2-5.2-2.3v1.7c-1-.6-.8-3.8-.7-4.5l.6-4.8c.2-1.1-.3-1.7-.3-1.7l-2.4-3.5c-3 2.9-6.7 2-6.7 2 5.1-.1 7.4-4.2 7.4-4.2l1.8.8c0 .1-.5 2-.5 2 1.6.7 2.4 2.7 2.4 2.7l-1.3-1.2-.3.9c.4.3.5.6.5.6.6.6.3 1.9.3 1.9.1.1-.8 6.1-.8 6.1l5.5 2.4c.3-1.2.2-2.8-.1-3.7-.2-.9-1.5-5.2-1.5-5.2-.6-2.3.4-5.1.4-5.1l1 .2c-.4 2.9-.1 4.5-.1 4.5.7 5.8 6.1 8.7 6.1 8.7 4.5-2.6 7-5.8 7-5.8.2 1.7-.5 11.2-.5 11.2.7.1 1.7.2 1.7.2.2 0 3.2-1.2 3.2-1.2.1-.1.2 0 .2 0l5.1.8h3.4c-1.3-5.3-1.4-8.5-1.4-8.5l-4.7-5.6c.2 1.7.4 2.3.5 2.5-1.9-2.8-.9-5.2-.5-6.5.4-1.2 2-4.1 2-4.1-.2-3.1-.8-4.4-.8-4.4.7.4.9 1.7.9 1.7 2.1-1.6 5.4-1.2 5.4-1.2.1-2.6-.1-4.5-.1-4.5"/></svg>